<svg width="8" height="8" viewBox="0 0 8 8" fill="none" xmlns="http://www.w3.org/2000/svg">
<path fill-rule="evenodd" clip-rule="evenodd" d="M1.01529 0H6.89479C7.45316 0 7.91 0.413392 7.91 1.01521V6.89487C7.91 7.49669 7.45316 7.91008 6.89479 7.91008H1.01529C0.456762 7.91008 0 7.49669 0 6.89487V1.01521C0 0.413392 0.456762 0 1.01529 0ZM5.76215 0.878844C5.56625 0.878844 5.40618 1.039 5.40618 1.23498V2.08735C5.40618 2.28324 5.56625 2.44348 5.76215 2.44348H6.65618C6.85207 2.44348 7.01231 2.28324 7.01231 2.08735V1.23498C7.01231 1.039 6.85207 0.878844 6.65618 0.878844H5.76215ZM7.01605 3.34515H6.31986C6.38573 3.56021 6.42138 3.78802 6.42138 4.02371C6.42138 5.33942 5.32041 6.40595 3.96255 6.40595C2.60478 6.40595 1.50397 5.33942 1.50397 4.02371C1.50397 3.78786 1.53954 3.56013 1.60549 3.34515H0.879006V6.68647C0.879006 6.85938 1.02049 7.00094 1.19348 7.00094H6.70174C6.87473 7.00094 7.01621 6.85946 7.01621 6.68647V3.34515H7.01605ZM3.96247 2.39857C3.08517 2.39857 2.37388 3.08769 2.37388 3.93786C2.37388 4.78804 3.08517 5.47716 3.96247 5.47716C4.83985 5.47716 5.55123 4.78804 5.55123 3.93786C5.55123 3.08769 4.83993 2.39857 3.96247 2.39857Z" fill="#D9D9D9"/>
</svg>
