<svg width="9" height="9" viewBox="0 0 9 9" fill="none" xmlns="http://www.w3.org/2000/svg">
<path fill-rule="evenodd" clip-rule="evenodd" d="M4.48805 8.4459C4.47347 8.44702 4.45828 8.44764 4.44309 8.44764C3.90991 8.44764 3.56768 8.20574 3.23677 7.97176C3.00826 7.8103 2.79265 7.65789 2.53858 7.61557C2.4146 7.59505 2.2912 7.58462 2.17195 7.58462C1.95712 7.58462 1.78764 7.61778 1.66391 7.64197C1.58872 7.6567 1.52386 7.66934 1.47456 7.66934C1.42306 7.66934 1.36725 7.6582 1.343 7.57533C1.32192 7.50353 1.30667 7.434 1.292 7.36673C1.25421 7.1936 1.22737 7.08714 1.15482 7.076C0.309171 6.94538 0.0671388 6.76727 0.0131729 6.64089C0.00553075 6.62281 0.0011845 6.6047 0.000152262 6.58678C-0.00258225 6.53823 0.0318074 6.49536 0.0797792 6.48752C1.37974 6.27345 1.96268 4.94482 1.98688 4.88839C2.06853 4.72254 2.08411 4.58258 2.03543 4.46785C1.94622 4.2576 1.65528 4.16521 1.46266 4.10411C1.41554 4.0892 1.37087 4.0751 1.33563 4.06119C0.951311 3.90925 0.91933 3.75329 0.934433 3.67381C0.960184 3.53837 1.14119 3.44399 1.28757 3.44399C1.32771 3.44399 1.36305 3.4511 1.39276 3.46497C1.56565 3.54596 1.72145 3.58701 1.85589 3.58701C2.04166 3.58701 2.12273 3.50894 2.13266 3.49871C2.12793 3.41074 2.12208 3.31883 2.11611 3.22403C2.07739 2.60943 2.02942 1.84576 2.22386 1.40985C2.80662 0.103187 4.04242 0.00168417 4.40728 0.00168417C4.41663 0.00168417 4.56724 9.05468e-05 4.56724 9.05468e-05C4.95457 0 6.19307 0.101702 6.77615 1.40907C6.97065 1.84522 6.92253 2.60954 6.88374 3.22367L6.88213 3.25036C6.87675 3.33589 6.87157 3.41899 6.86723 3.49857C6.87652 3.50806 6.95109 3.57984 7.11951 3.58631C7.24767 3.5814 7.39475 3.5406 7.55616 3.46499C7.60348 3.44292 7.65601 3.43824 7.69178 3.43824C7.7464 3.43824 7.8018 3.44882 7.84777 3.46802C7.98113 3.51543 8.06666 3.60695 8.06849 3.70257C8.07019 3.79261 8.00145 3.92799 7.66424 4.06121C7.62929 4.07493 7.58461 4.08913 7.53731 4.10413C7.34452 4.1653 7.05366 4.25762 6.96451 4.46782C6.91578 4.58249 6.93139 4.72236 7.01092 4.88368C7.03724 4.94478 7.61967 6.27303 8.92019 6.48734C8.96822 6.49525 9.0025 6.53808 8.99986 6.58669C8.99877 6.6049 8.99433 6.62325 8.98656 6.64109C8.93292 6.76657 8.69107 6.94444 7.84515 7.07515C7.77604 7.08576 7.74926 7.17582 7.70802 7.36465C7.69303 7.43337 7.67784 7.50088 7.65694 7.57187C7.63892 7.63348 7.60053 7.66231 7.53595 7.66231C7.48061 7.66231 7.41688 7.65429 7.33613 7.63844C7.19292 7.61043 7.03235 7.58462 6.82805 7.58462C6.70875 7.58462 6.58532 7.59505 6.46125 7.61557C6.20746 7.65789 5.99198 7.81001 5.76391 7.97124C5.43235 8.20574 5.09017 8.44764 4.55683 8.44764C4.53363 8.44764 4.51085 8.44697 4.48805 8.4459Z" fill="#D9D9D9"/>
</svg>
